<?xml version="1.0" standalone="no"?>
<!DOCTYPE svg PUBLIC "-//W3C//DTD SVG 20010904//EN"
 "http://www.w3.org/TR/2001/REC-SVG-20010904/DTD/svg10.dtd">
<svg version="1.0" xmlns="http://www.w3.org/2000/svg"
 width="492.000000pt" height="94.000000pt" viewBox="0 0 492.000000 94.000000"
 preserveAspectRatio="xMidYMid meet">

<g transform="translate(0.000000,94.000000) scale(0.100000,-0.100000)"
fill="#FFFFFF" stroke="none">
<path d="M4693 885 c-42 -18 -63 -61 -63 -130 0 -55 3 -61 71 -153 67 -92 70
-99 66 -141 -5 -48 -21 -65 -49 -50 -14 7 -18 22 -18 59 l0 50 -35 0 -35 0 0
-50 c0 -56 20 -104 49 -120 11 -5 38 -10 59 -10 33 0 45 6 66 31 23 27 26 40
26 101 l0 71 -65 88 c-56 77 -65 95 -65 132 0 39 13 67 31 67 21 0 39 -35 39
-76 0 -42 1 -44 30 -44 l30 0 0 64 c0 55 -3 67 -26 90 -15 14 -32 26 -40 26
-7 0 -18 2 -26 5 -7 2 -27 -2 -45 -10z"/>
<path d="M3570 615 l0 -275 30 0 30 0 0 207 c0 113 3 204 6 200 5 -5 64 -365
64 -394 0 -9 18 -13 55 -13 l55 0 0 238 c0 130 3 254 6 275 l7 37 -37 0 -36 0
0 -189 c0 -105 -4 -192 -9 -195 -4 -3 -18 68 -30 157 -34 253 -24 227 -87 227
l-54 0 0 -275z"/>
<path d="M3890 615 l0 -275 35 0 35 0 0 275 0 275 -35 0 -35 0 0 -275z"/>
<path d="M4030 615 l0 -275 35 0 35 0 1 203 c1 111 4 193 6 183 3 -11 17 -101
32 -200 l26 -181 49 -3 c33 -2 52 1 57 10 5 7 9 131 9 276 l0 262 -35 0 -35 0
0 -202 c0 -111 -3 -199 -6 -196 -3 3 -18 93 -33 200 l-27 193 -57 3 -57 3 0
-276z"/>
<path d="M4383 866 l-28 -24 0 -226 0 -226 27 -26 c21 -22 36 -27 72 -27 87 0
106 41 106 228 l0 135 -60 0 -60 0 0 -35 c0 -31 3 -35 25 -35 l26 0 -3 -106
c-2 -87 -6 -109 -20 -117 -12 -8 -21 -7 -32 2 -14 12 -16 40 -14 210 l3 196
30 0 c25 0 30 -4 33 -27 3 -25 8 -28 38 -28 20 0 34 5 34 13 0 33 -23 88 -43
102 -34 24 -101 19 -134 -9z"/>
<path d="M80 798 c0 -46 3 -167 7 -270 l6 -188 67 0 c84 0 115 23 125 95 9 55
2 186 -10 205 -5 8 -9 54 -9 103 -1 84 -2 90 -29 113 -23 20 -39 24 -93 24
l-64 0 0 -82z m108 10 c7 -7 12 -36 12 -65 0 -50 -1 -53 -25 -53 -24 0 -25 3
-25 58 0 71 11 87 38 60z m21 -202 c8 -9 11 -46 9 -103 l-3 -88 -32 -3 -33 -3
0 99 c0 54 3 102 7 105 11 12 40 8 52 -7z"/>
<path d="M360 610 l0 -270 35 0 35 0 0 56 c0 69 15 68 42 -4 18 -49 22 -52 54
-52 19 0 34 2 34 5 0 2 -9 28 -21 57 l-20 52 20 37 c19 32 21 54 21 179 0 193
-10 209 -127 210 l-73 0 0 -270z m125 60 l0 -145 -32 -3 -33 -3 0 144 c0 79 3
147 7 151 4 4 19 6 33 4 l25 -3 0 -145z"/>
<path d="M640 610 l0 -270 85 0 85 0 0 35 0 35 -55 0 -56 0 3 108 3 107 53 3
52 3 0 35 0 34 -55 0 -56 0 3 58 3 57 53 3 c50 3 52 4 52 33 l0 29 -85 0 -85
0 0 -270z"/>
<path d="M890 868 c0 -7 16 -123 35 -258 19 -135 35 -251 35 -257 0 -8 14 -13
34 -13 41 0 41 -1 57 135 6 55 15 106 19 113 4 8 15 -45 25 -118 l18 -131 36
3 36 3 32 245 c41 311 41 292 1 288 l-33 -3 -16 -128 c-10 -71 -19 -130 -22
-133 -2 -3 -13 56 -23 131 l-18 135 -36 0 -37 0 -12 -110 c-19 -168 -25 -181
-40 -85 -6 44 -14 106 -18 138 -6 57 -6 57 -39 57 -21 0 -34 -5 -34 -12z"/>
<path d="M1330 610 l0 -270 85 0 85 0 0 35 0 35 -50 0 -50 0 0 110 0 110 50 0
50 0 0 35 0 35 -50 0 -50 0 0 60 0 60 50 0 c49 0 50 1 50 30 l0 30 -85 0 -85
0 0 -270z"/>
<path d="M1580 609 l0 -271 71 4 c65 3 74 6 100 36 l29 32 0 195 c0 129 -4
203 -12 220 -17 38 -58 55 -128 55 l-60 0 0 -271z m130 182 c6 -11 10 -90 10
-185 0 -179 -5 -196 -56 -196 l-24 0 0 200 0 200 30 0 c19 0 33 -7 40 -19z"/>
<path d="M2120 870 c0 -15 -69 -479 -75 -507 -5 -20 -1 -23 29 -23 34 0 35 1
41 48 20 147 16 137 63 140 29 2 42 -1 43 -10 0 -7 6 -49 12 -93 l12 -80 33
-3 c20 -2 32 1 32 9 0 10 -73 433 -86 502 -5 25 -9 27 -55 27 -27 0 -49 -5
-49 -10z m74 -175 c4 -33 9 -68 12 -77 4 -15 -1 -18 -27 -18 l-32 0 7 65 c4
36 9 80 13 97 5 26 7 28 13 12 4 -10 10 -46 14 -79z"/>
<path d="M2323 853 c3 -16 20 -137 38 -270 l33 -243 36 0 36 0 13 108 c7 59
15 118 19 132 l5 25 8 -27 c4 -15 13 -74 20 -132 l13 -106 36 0 36 0 35 268
34 267 -29 3 c-16 2 -32 -2 -36 -8 -4 -6 -13 -62 -19 -124 -15 -135 -26 -158
-35 -79 -3 32 -11 93 -17 136 l-11 77 -33 0 c-40 0 -39 2 -56 -140 -6 -58 -15
-111 -19 -118 -3 -7 -14 48 -24 123 l-19 135 -35 0 c-32 0 -34 -2 -29 -27z"/>
<path d="M2734 613 l-40 -268 29 -3 c16 -2 31 -1 34 2 3 3 10 45 17 93 l11 88
42 3 c46 3 45 5 58 -103 10 -79 13 -85 46 -85 20 0 29 5 29 16 0 16 -75 454
-85 502 -5 19 -12 22 -53 22 l-48 0 -40 -267z m112 85 c8 -46 14 -86 14 -90 0
-5 -13 -8 -30 -8 -17 0 -30 5 -30 13 0 30 24 177 28 172 3 -2 11 -42 18 -87z"/>
<path d="M3030 610 l0 -270 30 0 29 0 3 145 c2 83 7 145 13 146 5 0 17 -28 26
-63 9 -35 27 -100 39 -145 l22 -83 35 0 c28 0 33 3 29 18 -20 65 -96 355 -96
366 0 7 14 43 30 79 17 37 30 69 30 72 0 3 -17 5 -39 5 -37 0 -39 -2 -56 -47
-26 -72 -35 -74 -35 -10 0 57 0 57 -30 57 l-30 0 0 -270z"/>
<path d="M3320 610 l0 -270 85 0 85 0 0 35 0 35 -50 0 -50 0 0 110 0 110 50 0
50 0 0 35 0 35 -50 0 -50 0 0 60 0 60 50 0 c49 0 50 1 50 30 l0 30 -85 0 -85
0 0 -270z"/>
<path d="M1300 263 c-80 -29 -91 -151 -18 -189 38 -20 92 -15 96 8 3 14 -4 18
-31 18 -41 0 -67 25 -67 67 0 37 27 63 67 63 33 0 52 24 27 34 -19 7 -53 7
-74 -1z"/>
<path d="M1451 256 c-77 -43 -61 -176 24 -192 82 -15 138 51 115 137 -16 60
-83 86 -139 55z m89 -45 c26 -49 4 -111 -38 -111 -16 0 -33 5 -40 12 -15 15
-16 72 -2 99 14 26 66 26 80 0z"/>
<path d="M1630 165 c0 -98 1 -105 20 -105 17 0 20 7 20 40 0 39 1 40 35 40 28
0 35 4 35 20 0 16 -7 20 -35 20 -30 0 -35 3 -35 24 0 21 5 25 37 28 27 2 39 8
41 21 3 15 -5 17 -57 17 l-61 0 0 -105z"/>
<path d="M1780 165 c0 -98 1 -105 20 -105 17 0 20 7 20 40 l0 40 41 0 c33 0
40 3 37 18 -2 12 -14 18 -41 20 -32 3 -37 7 -37 28 0 21 4 24 40 24 33 0 40 3
40 20 0 18 -7 20 -60 20 l-60 0 0 -105z"/>
<path d="M1940 165 l0 -105 66 0 c57 0 65 2 62 17 -2 13 -15 19 -46 21 -34 3
-42 7 -42 23 0 16 7 19 40 19 33 0 40 3 40 20 0 17 -7 20 -40 20 -36 0 -40 3
-40 25 0 23 4 25 40 25 33 0 40 3 40 20 0 18 -7 20 -60 20 l-60 0 0 -105z"/>
<path d="M2100 165 l0 -105 66 0 c57 0 65 2 62 17 -2 13 -15 19 -46 21 -34 3
-42 7 -42 23 0 16 7 19 40 19 33 0 40 3 40 20 0 17 -7 20 -40 20 -36 0 -40 3
-40 25 0 23 4 25 40 25 33 0 40 3 40 20 0 18 -7 20 -60 20 l-60 0 0 -105z"/>
<path d="M2327 263 c-4 -3 -7 -51 -7 -105 0 -91 1 -98 20 -98 17 0 20 7 20 41
0 36 2 40 23 37 16 -2 24 -13 31 -40 8 -31 14 -38 33 -38 20 0 23 4 17 28 -4
15 -12 37 -20 49 -11 18 -11 23 1 33 23 19 19 66 -7 84 -22 16 -99 22 -111 9z
m87 -45 c13 -22 -14 -54 -38 -45 -16 6 -22 48 -9 61 11 11 35 3 47 -16z"/>
<path d="M2541 256 c-77 -43 -61 -176 24 -192 82 -15 138 51 115 137 -16 60
-83 86 -139 55z m89 -45 c26 -49 4 -111 -38 -111 -16 0 -33 5 -40 12 -15 15
-16 72 -2 99 14 26 66 26 80 0z"/>
<path d="M2757 263 c-5 -9 -57 -189 -57 -198 0 -4 10 -5 23 -3 14 2 23 11 25
26 3 18 10 22 37 22 27 0 34 -5 39 -25 5 -18 13 -25 31 -25 l24 0 -14 47 c-8
27 -22 74 -31 106 -15 52 -19 57 -45 57 -15 0 -30 -3 -32 -7z m47 -95 c5 -24
3 -28 -14 -28 -22 0 -24 9 -13 61 7 35 12 29 27 -33z"/>
<path d="M2933 258 c-48 -24 -40 -80 15 -106 50 -23 49 -47 -2 -48 -67 -1 -58
-44 9 -44 44 0 75 25 75 60 0 32 -8 41 -58 71 -40 23 -34 39 14 39 28 0 35 4
32 18 -4 20 -52 26 -85 10z"/>
<path d="M3050 250 c0 -16 7 -20 30 -20 l30 0 0 -85 c0 -78 2 -85 20 -85 18 0
20 7 20 85 0 84 0 85 25 85 18 0 25 5 25 20 0 18 -7 20 -75 20 -68 0 -75 -2
-75 -20z"/>
<path d="M3230 165 l0 -105 66 0 c57 0 65 2 62 17 -2 13 -15 19 -46 21 -34 3
-42 7 -42 23 0 16 7 19 40 19 33 0 40 3 40 20 0 17 -7 20 -40 20 -36 0 -40 3
-40 25 0 23 4 25 40 25 33 0 40 3 40 20 0 18 -7 20 -60 20 l-60 0 0 -105z"/>
<path d="M3397 263 c-4 -3 -7 -51 -7 -105 0 -91 1 -98 20 -98 17 0 20 7 20 41
0 36 2 40 23 37 16 -2 24 -13 31 -40 8 -31 14 -38 33 -38 20 0 23 4 17 28 -4
15 -12 37 -20 49 -11 18 -11 23 1 33 23 19 19 66 -7 84 -22 16 -99 22 -111 9z
m87 -45 c13 -22 -14 -54 -38 -45 -16 6 -22 48 -9 61 11 11 35 3 47 -16z"/>
<path d="M3592 254 c-38 -26 -27 -73 23 -101 53 -29 52 -48 -2 -48 -31 0 -43
-4 -46 -17 -4 -13 3 -19 29 -24 46 -8 93 12 101 44 8 32 -6 53 -48 73 -42 21
-44 43 -4 47 38 4 55 20 35 32 -23 15 -63 12 -88 -6z"/>
</g>
</svg>
