<?xml version="1.0" standalone="no"?>
<!DOCTYPE svg PUBLIC "-//W3C//DTD SVG 20010904//EN"
 "http://www.w3.org/TR/2001/REC-SVG-20010904/DTD/svg10.dtd">
<svg version="1.0" xmlns="http://www.w3.org/2000/svg"
 width="476.000000pt" height="56.000000pt" viewBox="0 0 476.000000 56.000000"
 preserveAspectRatio="xMidYMid meet">

<g transform="translate(0.000000,56.000000) scale(0.100000,-0.100000)"
fill="#000000" stroke="none">
<path d="M3490 285 l0 -275 30 0 30 0 0 207 c0 113 3 204 6 200 5 -5 64 -365
64 -394 0 -9 18 -13 55 -13 l55 0 0 238 c0 130 3 254 6 275 l7 37 -37 0 -36 0
0 -189 c0 -105 -4 -192 -9 -195 -4 -3 -18 68 -30 157 -34 253 -24 227 -87 227
l-54 0 0 -275z"/>
<path d="M3810 285 l0 -275 35 0 35 0 0 275 0 275 -35 0 -35 0 0 -275z"/>
<path d="M3950 285 l0 -275 35 0 35 0 1 203 c1 111 4 193 6 183 3 -11 17 -101
32 -200 l26 -181 49 -3 c33 -2 52 1 57 10 5 7 9 131 9 276 l0 262 -35 0 -35 0
0 -202 c0 -111 -3 -199 -6 -196 -3 3 -18 93 -33 200 l-27 193 -57 3 -57 3 0
-276z"/>
<path d="M4303 536 l-28 -24 0 -226 0 -226 27 -26 c21 -22 36 -27 72 -27 87 0
106 41 106 228 l0 135 -60 0 -60 0 0 -35 c0 -31 3 -35 25 -35 l26 0 -3 -106
c-2 -87 -6 -109 -20 -117 -12 -8 -21 -7 -32 2 -14 12 -16 40 -14 210 l3 196
30 0 c25 0 30 -4 33 -27 3 -25 8 -28 38 -28 20 0 34 5 34 13 0 33 -23 88 -43
102 -34 24 -101 19 -134 -9z"/>
<path d="M4597 549 c-29 -17 -47 -65 -47 -124 0 -55 3 -61 71 -153 67 -92 70
-99 66 -141 -5 -48 -21 -65 -49 -50 -14 7 -18 22 -18 59 l0 50 -35 0 -35 0 0
-50 c0 -56 20 -104 49 -120 11 -5 38 -10 59 -10 33 0 45 6 66 31 23 27 26 40
26 101 l0 71 -65 88 c-56 77 -65 95 -65 132 0 39 13 67 31 67 21 0 39 -35 39
-76 0 -42 1 -44 30 -44 l30 0 0 64 c0 55 -3 67 -26 90 -20 20 -37 26 -68 26
-22 0 -49 -5 -59 -11z"/>
<path d="M0 468 c0 -46 3 -167 7 -271 l6 -187 67 0 c84 0 115 23 125 95 9 55
2 186 -10 205 -5 8 -9 54 -9 103 -1 84 -2 90 -29 113 -23 20 -39 24 -93 24
l-64 0 0 -82z m108 10 c7 -7 12 -36 12 -65 0 -50 -1 -53 -25 -53 -24 0 -25 3
-25 58 0 71 11 87 38 60z m21 -202 c8 -9 11 -46 9 -103 l-3 -88 -32 -3 -33 -3
0 99 c0 54 3 102 7 105 11 12 40 8 52 -7z"/>
<path d="M280 280 l0 -270 35 0 35 0 0 56 c0 69 15 68 42 -4 18 -49 22 -52 54
-52 19 0 34 2 34 5 0 2 -9 28 -21 57 l-20 52 20 37 c19 32 21 54 21 179 0 193
-10 209 -127 210 l-73 0 0 -270z m125 60 l0 -145 -32 -3 -33 -3 0 144 c0 79 3
147 7 151 4 4 19 6 33 4 l25 -3 0 -145z"/>
<path d="M560 280 l0 -270 85 0 85 0 0 35 0 35 -55 0 -56 0 3 108 3 107 53 3
52 3 0 35 0 34 -55 0 -56 0 3 58 3 57 53 3 c50 3 52 4 52 33 l0 29 -85 0 -85
0 0 -270z"/>
<path d="M810 538 c0 -7 16 -123 35 -258 19 -135 35 -251 35 -257 0 -8 14 -13
34 -13 41 0 41 -1 57 135 6 55 15 106 19 113 4 8 15 -45 25 -118 l18 -131 36
3 36 3 32 245 c41 311 41 292 1 288 l-33 -3 -16 -128 c-10 -71 -19 -130 -22
-133 -2 -3 -13 56 -23 131 l-18 135 -36 0 -37 0 -12 -110 c-19 -168 -25 -181
-40 -85 -6 44 -14 106 -18 138 -6 57 -6 57 -39 57 -21 0 -34 -5 -34 -12z"/>
<path d="M1250 280 l0 -270 85 0 85 0 0 35 0 35 -50 0 -50 0 0 110 0 110 50 0
50 0 0 35 0 35 -50 0 -50 0 0 60 0 60 50 0 c49 0 50 1 50 30 l0 30 -85 0 -85
0 0 -270z"/>
<path d="M1500 279 l0 -271 71 4 c65 3 74 6 100 36 l29 32 0 195 c0 129 -4
203 -12 220 -17 38 -58 55 -128 55 l-60 0 0 -271z m130 182 c6 -11 10 -90 10
-185 0 -179 -5 -196 -56 -196 l-24 0 0 200 0 200 30 0 c19 0 33 -7 40 -19z"/>
<path d="M2040 540 c0 -15 -69 -479 -75 -507 -5 -20 -1 -23 29 -23 34 0 35 1
41 47 20 148 16 138 63 141 29 2 42 -1 43 -10 0 -7 6 -49 12 -93 l12 -80 33
-3 c20 -2 32 1 32 9 0 10 -73 433 -86 502 -5 25 -9 27 -55 27 -27 0 -49 -5
-49 -10z m74 -175 c4 -33 9 -68 12 -77 4 -15 -1 -18 -27 -18 l-32 0 7 65 c4
36 9 80 13 97 5 26 7 28 13 12 4 -10 10 -46 14 -79z"/>
<path d="M2243 523 c3 -16 20 -137 38 -271 l33 -242 36 0 36 0 13 108 c7 59
15 118 19 132 l5 25 8 -27 c4 -15 13 -74 20 -132 l13 -106 36 0 36 0 35 267
34 268 -29 3 c-16 2 -32 -2 -36 -8 -4 -6 -13 -63 -20 -126 -7 -63 -16 -116
-20 -119 -4 -3 -10 19 -14 48 -4 28 -11 87 -17 130 l-11 77 -33 0 c-40 0 -39
2 -56 -140 -6 -58 -15 -111 -19 -118 -3 -7 -14 48 -24 123 l-19 135 -35 0
c-32 0 -34 -2 -29 -27z"/>
<path d="M2654 283 l-40 -268 29 -3 c16 -2 31 -1 34 2 3 3 10 45 17 93 l11 88
42 3 c46 3 45 5 58 -103 10 -79 13 -85 46 -85 20 0 29 5 29 16 0 16 -75 454
-85 502 -5 19 -12 22 -53 22 l-48 0 -40 -267z m109 104 c4 -29 10 -67 13 -85
6 -31 5 -32 -25 -32 -20 0 -31 5 -31 15 0 39 23 164 30 160 4 -2 10 -28 13
-58z"/>
<path d="M2950 280 l0 -270 30 0 29 0 3 145 c2 83 7 145 13 146 5 0 17 -28 26
-63 9 -35 27 -100 39 -145 l22 -83 35 0 c28 0 33 3 29 18 -20 65 -96 355 -96
366 0 7 14 43 30 79 17 37 30 69 30 72 0 3 -17 5 -39 5 -37 0 -39 -2 -56 -47
-26 -72 -35 -74 -35 -10 0 57 0 57 -30 57 l-30 0 0 -270z"/>
<path d="M3240 280 l0 -270 85 0 85 0 0 35 0 35 -50 0 -50 0 0 110 0 110 50 0
50 0 0 35 0 35 -50 0 -50 0 0 60 0 60 50 0 c49 0 50 1 50 30 l0 30 -85 0 -85
0 0 -270z"/>
</g>
</svg>
